<?xml version="1.0" standalone="no"?>
<!DOCTYPE svg PUBLIC "-//W3C//DTD SVG 20010904//EN"
 "http://www.w3.org/TR/2001/REC-SVG-20010904/DTD/svg10.dtd">
<svg version="1.0" xmlns="http://www.w3.org/2000/svg"
 width="100.000000pt" height="100.000000pt" viewBox="0 0 100.000000 100.000000"
 preserveAspectRatio="xMidYMid meet">

<g transform="translate(0.000000,100.000000) scale(0.100000,-0.100000)"
fill="#000000" stroke="none">
<path d="M252 808 c-17 -17 -17 -599 0 -616 16 -16 80 -16 96 0 8 8 12 52 12
130 l0 118 140 0 140 0 0 -118 c0 -78 4 -122 12 -130 16 -16 80 -16 96 0 17
17 17 599 0 616 -16 16 -80 16 -96 0 -8 -8 -12 -52 -12 -130 l0 -118 -140 0
-140 0 0 118 c0 78 -4 122 -12 130 -16 16 -80 16 -96 0z"/>
<path d="M112 728 c-17 -17 -17 -439 0 -456 7 -7 29 -12 50 -12 l38 0 0 240 0
240 -38 0 c-21 0 -43 -5 -50 -12z"/>
<path d="M800 500 l0 -240 38 0 c21 0 43 5 50 12 17 17 17 439 0 456 -7 7 -29
12 -50 12 l-38 0 0 -240z"/>
<path d="M4 546 c-3 -7 -4 -33 -2 -57 3 -40 6 -44 31 -47 27 -3 27 -3 27 57 0
59 -1 61 -25 61 -14 0 -28 -6 -31 -14z"/>
<path d="M940 500 c0 -61 0 -61 28 -58 26 3 27 5 27 58 0 53 -1 55 -27 58 -28
3 -28 3 -28 -58z"/>
</g>
</svg>
